<svg width="39" height="39" viewBox="0 0 39 39" fill="none" xmlns="http://www.w3.org/2000/svg">
<path d="M25.0508 13.8464H13.7186C11.4952 13.8464 9.69238 15.4847 9.69238 17.504V22.6504C9.69238 24.6715 11.4952 26.308 13.7186 26.308H25.0508C27.2742 26.308 29.077 24.6697 29.077 22.6504V17.504C29.077 15.4829 27.2742 13.8464 25.0508 13.8464ZM22.3292 20.3283L17.0275 22.6254C16.9951 22.6395 16.9593 22.6458 16.9235 22.6438C16.8877 22.6418 16.853 22.6316 16.8227 22.614C16.7923 22.5964 16.7673 22.5721 16.7499 22.5433C16.7325 22.5145 16.7233 22.4821 16.7232 22.4491V17.7124C16.7235 17.679 16.7331 17.6463 16.7511 17.6173C16.769 17.5882 16.7948 17.5639 16.8259 17.5466C16.8569 17.5293 16.8923 17.5196 16.9286 17.5184C16.9649 17.5172 17.001 17.5245 17.0333 17.5397L22.3331 19.9793C22.3679 19.996 22.3971 20.0212 22.4173 20.0522C22.4375 20.0832 22.4479 20.1187 22.4475 20.1549C22.4471 20.191 22.4359 20.2263 22.415 20.2569C22.3941 20.2875 22.3644 20.3122 22.3292 20.3283Z" fill="#3A405B"/>
<circle cx="19.3846" cy="19.3846" r="18.3846" stroke="#3A405B" stroke-width="2"/>
</svg>
