<svg width="39" height="39" viewBox="0 0 39 39" fill="none" xmlns="http://www.w3.org/2000/svg">
<path d="M27.692 20.4157V26.3082H24.1314V20.8094C24.1314 19.4291 23.6163 18.4872 22.3269 18.4872C21.3433 18.4872 20.7568 19.1215 20.4992 19.7367C20.4062 19.9567 20.3813 20.2627 20.3813 20.5687V26.3082H16.8189C16.8189 26.3082 16.8671 16.9969 16.8189 16.0326H20.3813V17.4878L20.358 17.5213H20.3813V17.4894C20.8548 16.7881 21.6989 15.7904 23.5914 15.7904C25.9341 15.7904 27.692 17.2599 27.692 20.4157ZM13.0921 11.0774C11.8742 11.0774 11.0767 11.8456 11.0767 12.8529C11.0767 13.8411 11.8509 14.6301 13.0456 14.6301H13.0688C14.3117 14.6301 15.0843 13.8395 15.0843 12.8529C15.061 11.8456 14.3117 11.0774 13.0921 11.0774ZM11.2877 26.3082H14.85V16.0326H11.2877V26.3082Z" fill="white"/>
<circle cx="19.3846" cy="19.3846" r="18.3846" stroke="white" stroke-width="2"/>
</svg>
