<svg width="39" height="39" viewBox="0 0 39 39" fill="none" xmlns="http://www.w3.org/2000/svg">
<circle cx="19.3846" cy="19.3846" r="18.3846" stroke="#3A405B" stroke-width="2"/>
<path d="M19.3844 16.5004C17.7964 16.5004 16.5005 17.7963 16.5005 19.3843C16.5005 20.9723 17.7964 22.2682 19.3844 22.2682C20.9723 22.2682 22.2682 20.9723 22.2682 19.3843C22.2682 17.7963 20.9723 16.5004 19.3844 16.5004ZM28.0339 19.3843C28.0339 18.1901 28.0447 17.0067 27.9776 15.8146C27.9106 14.43 27.5947 13.2012 26.5822 12.1887C25.5675 11.174 24.3408 10.8603 22.9562 10.7932C21.762 10.7262 20.5786 10.737 19.3865 10.737C18.1923 10.737 17.0089 10.7262 15.8168 10.7932C14.4322 10.8603 13.2034 11.1762 12.1909 12.1887C11.1762 13.2033 10.8625 14.43 10.7954 15.8146C10.7284 17.0088 10.7392 18.1923 10.7392 19.3843C10.7392 20.5764 10.7284 21.762 10.7954 22.954C10.8625 24.3386 11.1784 25.5675 12.1909 26.58C13.2055 27.5947 14.4322 27.9084 15.8168 27.9754C17.011 28.0425 18.1945 28.0317 19.3865 28.0317C20.5807 28.0317 21.7642 28.0425 22.9562 27.9754C24.3408 27.9084 25.5697 27.5925 26.5822 26.58C27.5969 25.5653 27.9106 24.3386 27.9776 22.954C28.0469 21.762 28.0339 20.5786 28.0339 19.3843ZM19.3844 23.8216C16.9288 23.8216 14.9471 21.8398 14.9471 19.3843C14.9471 16.9288 16.9288 14.9471 19.3844 14.9471C21.8399 14.9471 23.8216 16.9288 23.8216 19.3843C23.8216 21.8398 21.8399 23.8216 19.3844 23.8216ZM24.0033 15.8016C23.43 15.8016 22.967 15.3387 22.967 14.7653C22.967 14.192 23.43 13.729 24.0033 13.729C24.5767 13.729 25.0396 14.192 25.0396 14.7653C25.0398 14.9015 25.0131 15.0363 24.9611 15.1621C24.9091 15.2879 24.8328 15.4022 24.7365 15.4985C24.6402 15.5948 24.5259 15.6711 24.4001 15.7231C24.2743 15.7751 24.1395 15.8018 24.0033 15.8016Z" fill="#3A405B"/>
</svg>
