<svg width="22" height="22" viewBox="0 0 22 22" fill="none" xmlns="http://www.w3.org/2000/svg">
<path d="M11.2456 10.6055L11.0003 10.8475L10.7539 10.6055C10.296 10.1535 9.67849 9.9 9.03508 9.9C8.39167 9.9 7.77416 10.1535 7.31629 10.6055C7.08905 10.8241 6.90827 11.0863 6.78479 11.3765C6.6613 11.6666 6.59766 11.9787 6.59766 12.294C6.59766 12.6094 6.6613 12.9214 6.78479 13.2116C6.90827 13.5017 7.08905 13.764 7.31629 13.9826L11.0003 17.6006L14.6842 13.9826C14.9115 13.764 15.0923 13.5017 15.2157 13.2116C15.3392 12.9214 15.4029 12.6094 15.4029 12.294C15.4029 11.9787 15.3392 11.6666 15.2157 11.3765C15.0923 11.0863 14.9115 10.8241 14.6842 10.6055C14.2262 10.1534 13.6085 9.8999 12.9649 9.8999C12.3213 9.8999 11.7036 10.1534 11.2456 10.6055Z" fill="black"/>
<path d="M21.6779 10.2227L11.7777 0.322528C11.6756 0.220286 11.5544 0.139172 11.421 0.0838293C11.2875 0.0284863 11.1445 0 11 0C10.8555 0 10.7125 0.0284863 10.579 0.0838293C10.4456 0.139172 10.3244 0.220286 10.2223 0.322528L0.322072 10.2227C0.168279 10.3766 0.0635495 10.5726 0.0211243 10.7859C-0.0213009 10.9993 0.000482856 11.2204 0.0837217 11.4214C0.166961 11.6224 0.307917 11.7941 0.488772 11.915C0.669626 12.0359 0.882259 12.1004 1.09979 12.1005H2.19981V19.8006C2.19981 21.014 3.18653 22.0007 4.39986 22.0007H17.6001C18.8135 22.0007 19.8002 21.014 19.8002 19.8006V12.1005H20.9002C21.1177 12.1004 21.3304 12.0359 21.5112 11.915C21.6921 11.7941 21.833 11.6224 21.9163 11.4214C21.9995 11.2204 22.0213 10.9993 21.9789 10.7859C21.9365 10.5726 21.8317 10.3766 21.6779 10.2227ZM17.6012 19.8006H4.39986V9.25692L11 2.65678L17.6001 9.25692V14.3005L17.6012 19.8006Z" fill="black"/>
</svg>
