<svg width="21" height="16" viewBox="0 0 21 16" fill="none" xmlns="http://www.w3.org/2000/svg">
<path d="M18.1818 6.84996C17.7233 6.64869 17.228 6.54498 16.7273 6.54541H3.63636C3.13569 6.54493 2.64037 6.64848 2.18182 6.8495C1.53373 7.13292 0.982244 7.59901 0.59477 8.19079C0.207296 8.78258 0.000619294 9.47442 0 10.1818V15.2727C0 15.4656 0.0766231 15.6506 0.213013 15.7869C0.349403 15.9233 0.534388 16 0.727273 16C0.920157 16 1.10514 15.9233 1.24153 15.7869C1.37792 15.6506 1.45455 15.4656 1.45455 15.2727V14.909C1.45572 14.813 1.49441 14.7212 1.56236 14.6532C1.6303 14.5853 1.72211 14.5466 1.81818 14.5454H18.5455C18.6415 14.5466 18.7333 14.5853 18.8013 14.6532C18.8692 14.7212 18.9079 14.813 18.9091 14.909V15.2727C18.9091 15.4656 18.9857 15.6506 19.1221 15.7869C19.2585 15.9233 19.4435 16 19.6364 16C19.8292 16 20.0142 15.9233 20.1506 15.7869C20.287 15.6506 20.3636 15.4656 20.3636 15.2727V10.1818C20.3629 9.4745 20.1562 8.78275 19.7687 8.19105C19.3813 7.59936 18.8298 7.13334 18.1818 6.84996Z" fill="#B9BED1"/>
<path d="M15.6364 0H4.72734C4.05224 0 3.4048 0.268181 2.92743 0.745546C2.45007 1.22291 2.18188 1.87036 2.18188 2.54545V5.81818C2.18191 5.84636 2.18847 5.87414 2.20107 5.89934C2.21367 5.92455 2.23195 5.94648 2.25448 5.9634C2.277 5.98033 2.30315 5.99179 2.33086 5.99688C2.35857 6.00197 2.38709 6.00055 2.41416 5.99273C2.81118 5.87661 3.22277 5.81783 3.63643 5.81818H3.8287C3.87358 5.81847 3.91698 5.80214 3.95054 5.77235C3.98411 5.74256 4.00547 5.70141 4.01052 5.65682C4.05019 5.30145 4.21937 4.97315 4.48575 4.7346C4.75212 4.49606 5.09704 4.364 5.45461 4.36364H8.00007C8.35788 4.36366 8.70312 4.49558 8.96979 4.73415C9.23645 4.97272 9.40583 5.30122 9.44552 5.65682C9.45057 5.70141 9.47193 5.74256 9.5055 5.77235C9.53906 5.80214 9.58246 5.81847 9.62734 5.81818H10.7392C10.784 5.81847 10.8274 5.80214 10.861 5.77235C10.8946 5.74256 10.9159 5.70141 10.921 5.65682C10.9606 5.30168 11.1296 4.97357 11.3957 4.73506C11.6618 4.49655 12.0064 4.36433 12.3637 4.36364H14.9092C15.267 4.36366 15.6122 4.49558 15.8789 4.73415C16.1455 4.97272 16.3149 5.30122 16.3546 5.65682C16.3597 5.70141 16.381 5.74256 16.4146 5.77235C16.4482 5.80214 16.4916 5.81847 16.5364 5.81818H16.7273C17.141 5.81798 17.5526 5.87691 17.9496 5.99318C17.9767 6.00101 18.0053 6.00242 18.033 5.99731C18.0608 5.9922 18.0869 5.9807 18.1095 5.96372C18.132 5.94674 18.1503 5.92475 18.1628 5.89949C18.1754 5.87423 18.1819 5.8464 18.1819 5.81818V2.54545C18.1819 1.87036 17.9137 1.22291 17.4363 0.745546C16.959 0.268181 16.3115 0 15.6364 0Z" fill="#B9BED1"/>
</svg>
