<svg width="43" height="36" viewBox="0 0 43 36" fill="none" xmlns="http://www.w3.org/2000/svg">
<path d="M8.23058 0.0410356C10.2791 0.255537 12.0463 1.27936 13.2472 2.76122C14.4493 4.24453 15.0858 6.18487 14.8716 8.23058C14.6571 10.2791 13.6333 12.0463 12.1514 13.2472C10.6681 14.4493 8.72776 15.0858 6.68208 14.8716C4.63354 14.6571 2.86638 13.6333 1.66546 12.1514C0.463323 10.6681 -0.173154 8.72776 0.0410356 6.68208C0.255537 4.63354 1.27936 2.86638 2.76122 1.66546C4.24453 0.463324 6.18487 -0.173154 8.23058 0.0410356ZM11.797 3.9404C10.8966 2.82941 9.57313 2.06193 8.04013 1.90141C6.50425 1.74061 5.04997 2.2164 3.9404 3.11565C2.82941 4.01602 2.0619 5.33956 1.90141 6.87254C1.74061 8.40841 2.2164 9.86269 3.11565 10.9723C4.01602 12.0833 5.33956 12.8508 6.87253 13.0113C8.40841 13.1721 9.86269 12.6963 10.9723 11.797C12.0832 10.8966 12.8507 9.57313 13.0113 8.04013C13.1721 6.50425 12.6963 5.04997 11.797 3.9404Z" fill="white"/>
<path d="M11.7449 12.3274C11.4193 11.9269 10.8306 11.8663 10.4302 12.1919C10.0297 12.5175 9.96907 13.1061 10.2947 13.5066L27.974 35.3211C28.2996 35.7215 28.8882 35.7822 29.2887 35.4566C29.6891 35.131 29.7498 34.5423 29.4242 34.1419L11.7449 12.3274Z" fill="white"/>
<path d="M26.1892 31.0889L29.1986 28.6499L30.3777 30.1001L27.3684 32.539L26.1892 31.0889Z" fill="white"/>
<path d="M24.1052 28.6871L26.1463 27.033L27.3255 28.4832L25.2844 30.1372L24.1052 28.6871Z" fill="white"/>
<path d="M17.2655 10.802C17.1906 12.0837 17.6422 13.2743 18.4328 14.163C19.2236 15.0519 20.3515 15.6391 21.6289 15.7137C22.9106 15.7885 24.1013 15.3369 24.9899 14.5464C25.8789 13.7556 26.466 12.6277 26.5406 11.3503C26.6154 10.0685 26.1639 8.8779 25.3733 7.9892C24.5825 7.10029 23.4546 6.51316 22.1772 6.43855C20.8954 6.36371 19.7048 6.81527 18.8161 7.60587C17.9272 8.39668 17.3401 9.52455 17.2655 10.802ZM17.0339 15.4082C15.9258 14.1627 15.2929 12.4946 15.3977 10.6994C15.5028 8.89988 16.3257 7.31483 17.571 6.20696C18.8165 5.09895 20.4845 4.466 22.2797 4.57084C24.0793 4.67593 25.6643 5.49878 26.7722 6.74406C27.8802 7.98959 28.5132 9.65764 28.4083 11.4528C28.3032 13.2524 27.4804 14.8374 26.2351 15.9453C24.9896 17.0533 23.3215 17.6863 21.5264 17.5814C19.7268 17.4763 18.1417 16.6535 17.0339 15.4082H17.0339Z" fill="white"/>
<path d="M26.721 14.2201C26.3772 13.8338 25.7853 13.7994 25.399 14.1432C25.0127 14.487 24.9783 15.0789 25.3221 15.4652L41.2961 33.4208C41.6399 33.8071 42.2319 33.8415 42.6181 33.4977C43.0044 33.1539 43.0388 32.562 42.695 32.1757L26.721 14.2201Z" fill="white"/>
<path d="M40.42 31.472L37.9429 33.6755L36.6978 32.2767L39.1748 30.073L40.42 31.472Z" fill="white"/>
<path d="M38.6803 29.3781L37.0003 30.8727L35.7551 29.4738L37.4352 27.9792L38.6803 29.3781Z" fill="white"/>
</svg>
