<svg width="28" height="44" viewBox="0 0 28 44" fill="none" xmlns="http://www.w3.org/2000/svg">
<path d="M14 0C11.1646 0.00643519 8.3976 0.878553 6.06367 2.50144C3.72975 4.12433 1.93838 6.42183 0.925607 9.09123C-0.0871636 11.7606 -0.273815 14.6767 0.390247 17.4551C1.05431 20.2335 2.53792 22.744 4.64561 24.6557V44L14 37.7143L23.3544 44V24.6557C25.4621 22.744 26.9457 20.2335 27.6098 17.4551C28.2738 14.6767 28.0872 11.7606 27.0744 9.09123C26.0616 6.42183 24.2703 4.12433 21.9363 2.50144C19.6024 0.878553 16.8354 0.00643519 14 0ZM20.2363 38.1229L15.7306 35.1057L14 33.9429L12.2694 35.1057L7.76374 38.1229V26.7929C9.69775 27.7764 11.8338 28.2887 14 28.2887C16.1662 28.2887 18.3022 27.7764 20.2363 26.7929V38.1229ZM21.6238 22C19.8208 23.7743 17.4641 24.865 14.9539 25.0869C12.4437 25.3089 9.93461 24.6486 7.85256 23.2179C5.77051 21.7872 4.24379 19.6744 3.53156 17.2382C2.81933 14.8019 2.96547 12.1923 3.94519 9.85227C4.9249 7.51226 6.67781 5.58606 8.90637 4.40065C11.1349 3.21523 13.7018 2.84364 16.1713 3.34895C18.6408 3.85426 20.8607 5.20534 22.4542 7.17284C24.0477 9.14034 24.9166 11.603 24.9135 14.1429C24.9116 15.6073 24.6197 17.0566 24.0548 18.4058C23.4899 19.755 22.6634 20.977 21.6238 22Z" fill="#3A405B"/>
</svg>
