<svg width="6" height="10" viewBox="0 0 6 10" fill="none" xmlns="http://www.w3.org/2000/svg">
<path d="M0.247471 8.01852L3.53555 4.73044L0.247471 1.44236C0.169013 1.36391 0.106777 1.27076 0.0643161 1.16825C0.021855 1.06574 8.26689e-10 0.955873 0 0.844917C-8.26685e-10 0.733961 0.021855 0.624092 0.0643161 0.521582C0.106777 0.419072 0.169013 0.325929 0.247471 0.247471C0.325929 0.169013 0.419072 0.106777 0.521582 0.0643157C0.624092 0.0218546 0.733961 -8.26686e-10 0.844917 0C0.955873 8.26689e-10 1.06574 0.0218546 1.16825 0.0643157C1.27076 0.106777 1.36391 0.169013 1.44236 0.247471L5.33212 4.13723C5.66263 4.46773 5.66263 5.00162 5.33212 5.33212L1.44236 9.22188C1.36396 9.30044 1.27084 9.36277 1.16832 9.4053C1.0658 9.44782 0.955905 9.46971 0.844917 9.46971C0.733929 9.46971 0.624031 9.44782 0.521513 9.4053C0.418995 9.36277 0.325871 9.30044 0.247471 9.22188C-0.0745573 8.89138 -0.0830317 8.34902 0.247471 8.01852Z" fill="#334CD5"/>
</svg>
