<svg width="20" height="22" viewBox="0 0 20 22" fill="none" xmlns="http://www.w3.org/2000/svg">
<path d="M12.7821 8.59999C13.554 7.69999 14.0685 6.39999 14.0685 4.99999C14.0685 2.2 12.1817 0 9.78034 0C7.37895 0 5.49215 2.2 5.49215 4.99999C5.49215 6.39999 6.00673 7.69999 6.77861 8.59999C3.00499 10.1 0.346313 14.2 0.346313 19C0.346313 19.6 0.689369 20 1.20395 20C1.71854 20 2.06159 19.6 2.06159 19C2.06159 15 4.29146 11.6 7.37896 10.5C7.12167 10.9 7.20742 11.4 7.46471 11.7L7.9793 12.3L6.43556 18.7C6.34979 19.1 6.43555 19.6 6.77861 19.8L9.35152 21.8C9.60882 22 10.0376 22 10.2949 21.8L12.8678 19.8C13.2109 19.6 13.2967 19.1 13.2109 18.7L11.6672 12.3L12.1817 11.7C12.439 11.4 12.5248 10.8 12.2675 10.5C15.355 11.7 17.5849 15.1 17.5849 19C17.5849 19.6 17.9279 20 18.4425 20C18.9571 20 19.3001 19.6 19.3001 19C19.2144 14.2 16.4699 9.99999 12.7821 8.59999ZM7.20743 4.99999C7.20743 3.29999 8.32236 2 9.78034 2C11.2383 2 12.3533 3.29999 12.3533 4.99999C12.3533 6.69999 11.2383 7.99999 9.78034 7.99999C8.32236 7.99999 7.20743 6.69999 7.20743 4.99999ZM9.78034 11.6L9.26575 11L9.78034 10.4L10.2949 11L9.78034 11.6ZM9.78034 19.8L8.2366 18.6L9.35152 13.9C9.52305 14 9.60882 14 9.78034 14C9.95187 14 10.0376 13.9 10.2092 13.9L11.3241 18.6L9.78034 19.8Z" fill="black"/>
</svg>
