<svg width="35" height="63" viewBox="0 0 35 63" fill="none" xmlns="http://www.w3.org/2000/svg">
<path d="M7.04102 14.9424C8.6556 14.9424 9.99772 15.4268 11.0674 16.3955C12.137 17.3441 12.6719 18.5651 12.6719 20.0586C12.6719 21.5521 12.137 22.7832 11.0674 23.752C9.99772 24.7005 8.6556 25.1748 7.04102 25.1748C5.40625 25.1748 4.05404 24.6904 2.98438 23.7217C1.9349 22.7529 1.41016 21.5319 1.41016 20.0586C1.41016 18.5853 1.9349 17.3643 2.98438 16.3955C4.05404 15.4268 5.40625 14.9424 7.04102 14.9424ZM5.3457 60.8672L0.199219 58.4453L1.22852 56.3867C2.64128 53.763 3.37793 51.2604 3.43848 48.8789V41.3105H11.6123L11.582 47.8799C11.5618 50.2008 10.9665 52.5622 9.7959 54.9639C8.62533 57.3656 7.14193 59.3333 5.3457 60.8672ZM34.9531 31.9258C34.9531 36.6686 34.2568 41.1693 32.8643 45.4277C31.4717 49.6862 29.5443 53.3392 27.082 56.3867C24.64 59.4544 21.9961 61.5332 19.1504 62.623L17.2129 57.5977C20.0182 55.4987 22.1878 52.2695 23.7217 47.9102C25.2555 43.5508 26.0527 38.5355 26.1133 32.8643V31.0176C26.1133 24.9427 25.3363 19.6751 23.7822 15.2148C22.2484 10.7546 20.0586 7.48503 17.2129 5.40625L19.1504 0.380859C21.9759 1.49089 24.5996 3.54948 27.0215 6.55664C29.4635 9.54362 31.3809 13.1462 32.7734 17.3643C34.1862 21.5622 34.9128 25.972 34.9531 30.5938V31.9258Z" fill="#9BA0B5"/>
</svg>
