<svg width="52" height="54" viewBox="0 0 52 54" fill="none" xmlns="http://www.w3.org/2000/svg">
<path d="M0.171875 49.8104H51.827V53.5H0.171875V49.8104Z" fill="white"/>
<path d="M41.6801 18.4482H11.2404C10.2622 18.4492 9.32427 18.8383 8.63254 19.53C7.9408 20.2217 7.55176 21.1596 7.55078 22.1379V36.8965C7.55371 39.342 8.52648 41.6865 10.2557 43.4157C11.9849 45.145 14.3294 46.1177 16.7749 46.1207H31.5335C33.979 46.1177 36.3235 45.145 38.0528 43.4157C39.782 41.6865 40.7547 39.342 40.7577 36.8965V35.0517H41.6801C43.8818 35.0517 45.9934 34.177 47.5503 32.6202C49.1072 31.0633 49.9818 28.9517 49.9818 26.75C49.9818 24.5482 49.1072 22.4366 47.5503 20.8798C45.9934 19.3229 43.8818 18.4482 41.6801 18.4482ZM37.068 36.8965C37.0666 38.3639 36.483 39.7708 35.4454 40.8084C34.4078 41.846 33.0009 42.4295 31.5335 42.431H16.7749C15.3075 42.4295 13.9007 41.846 12.8631 40.8084C11.8255 39.7708 11.2419 38.3639 11.2404 36.8965V22.1379H37.068V36.8965ZM41.6801 31.362H40.7577V22.1379H41.6801C42.9033 22.1379 44.0764 22.6238 44.9413 23.4887C45.8062 24.3537 46.2922 25.5268 46.2922 26.75C46.2922 27.9732 45.8062 29.1463 44.9413 30.0112C44.0764 30.8761 42.9033 31.362 41.6801 31.362Z" fill="white"/>
<path d="M31.5341 14.7586H27.8444V14.4893C27.8471 13.8036 27.6575 13.1309 27.2972 12.5475C26.9369 11.9641 26.4202 11.4934 25.8059 11.1889L20.8525 8.71497C19.6242 8.10534 18.5913 7.16386 17.8707 5.99721C17.1501 4.83057 16.7707 3.48541 16.7754 2.11417V0H20.4651V2.11417C20.4628 2.79977 20.6526 3.4723 21.0128 4.05561C21.3731 4.63891 21.8896 5.10967 22.5036 5.41457L27.4551 7.88848C28.6836 8.49802 29.7169 9.43943 30.4378 10.6061C31.1587 11.7727 31.5384 13.1179 31.5341 14.4893V14.7586Z" fill="white"/>
</svg>
