<svg width="18" height="17" viewBox="0 0 18 17" fill="none" xmlns="http://www.w3.org/2000/svg">
<path d="M13.4344 2.33437C13.4969 2.39687 13.5281 2.46875 13.5281 2.55C13.5281 2.63125 13.4969 2.70312 13.4344 2.76562L7.56563 8.63437C7.50313 8.69687 7.43125 8.72812 7.35 8.72812C7.26875 8.72812 7.19688 8.69687 7.13438 8.63437L6.36563 7.86562C6.30313 7.80312 6.27188 7.73125 6.27188 7.65C6.27188 7.56875 6.30313 7.49687 6.36563 7.43437L6.77813 7.02187C6.32813 6.45312 6.07344 5.80625 6.01406 5.08125C5.95469 4.35625 6.1 3.68437 6.45 3.06562C5.9875 2.62187 5.4375 2.4 4.8 2.4C4.1375 2.4 3.57188 2.63437 3.10313 3.10312C2.63438 3.57187 2.4 4.1375 2.4 4.8V16.8H0V4.8C0 4.15 0.126563 3.52969 0.379688 2.93906C0.632812 2.34844 0.975 1.8375 1.40625 1.40625C1.8375 0.975 2.34844 0.632812 2.93906 0.379687C3.52969 0.126562 4.15 0 4.8 0C5.4625 0 6.09063 0.128125 6.68438 0.384375C7.27813 0.640625 7.79688 1 8.24063 1.4625C8.82812 1.21875 9.44375 1.14219 10.0875 1.23281C10.7313 1.32344 11.3094 1.57187 11.8219 1.97812L12.2344 1.56562C12.2969 1.50312 12.3688 1.47187 12.45 1.47187C12.5313 1.47187 12.6031 1.50312 12.6656 1.56562L13.4344 2.33437ZM12.6 4.8C12.7625 4.8 12.9031 4.85937 13.0219 4.97812C13.1406 5.09687 13.2 5.2375 13.2 5.4C13.2 5.5625 13.1406 5.70312 13.0219 5.82187C12.9031 5.94062 12.7625 6 12.6 6C12.4375 6 12.2969 5.94062 12.1781 5.82187C12.0594 5.70312 12 5.5625 12 5.4C12 5.2375 12.0594 5.09687 12.1781 4.97812C12.2969 4.85937 12.4375 4.8 12.6 4.8ZM15 6C14.8375 6 14.6969 5.94062 14.5781 5.82187C14.4594 5.70312 14.4 5.5625 14.4 5.4C14.4 5.2375 14.4594 5.09687 14.5781 4.97812C14.6969 4.85937 14.8375 4.8 15 4.8C15.1625 4.8 15.3031 4.85937 15.4219 4.97812C15.5406 5.09687 15.6 5.2375 15.6 5.4C15.6 5.5625 15.5406 5.70312 15.4219 5.82187C15.3031 5.94062 15.1625 6 15 6ZM17.4 4.8C17.5625 4.8 17.7031 4.85937 17.8219 4.97812C17.9406 5.09687 18 5.2375 18 5.4C18 5.5625 17.9406 5.70312 17.8219 5.82187C17.7031 5.94062 17.5625 6 17.4 6C17.2375 6 17.0969 5.94062 16.9781 5.82187C16.8594 5.70312 16.8 5.5625 16.8 5.4C16.8 5.2375 16.8594 5.09687 16.9781 4.97812C17.0969 4.85937 17.2375 4.8 17.4 4.8ZM11.4 6C11.5625 6 11.7031 6.05937 11.8219 6.17812C11.9406 6.29687 12 6.4375 12 6.6C12 6.7625 11.9406 6.90312 11.8219 7.02187C11.7031 7.14062 11.5625 7.2 11.4 7.2C11.2375 7.2 11.0969 7.14062 10.9781 7.02187C10.8594 6.90312 10.8 6.7625 10.8 6.6C10.8 6.4375 10.8594 6.29687 10.9781 6.17812C11.0969 6.05937 11.2375 6 11.4 6ZM13.2 6.6C13.2 6.4375 13.2594 6.29687 13.3781 6.17812C13.4969 6.05937 13.6375 6 13.8 6C13.9625 6 14.1031 6.05937 14.2219 6.17812C14.3406 6.29687 14.4 6.4375 14.4 6.6C14.4 6.7625 14.3406 6.90312 14.2219 7.02187C14.1031 7.14062 13.9625 7.2 13.8 7.2C13.6375 7.2 13.4969 7.14062 13.3781 7.02187C13.2594 6.90312 13.2 6.7625 13.2 6.6ZM16.2 6C16.3625 6 16.5031 6.05937 16.6219 6.17812C16.7406 6.29687 16.8 6.4375 16.8 6.6C16.8 6.7625 16.7406 6.90312 16.6219 7.02187C16.5031 7.14062 16.3625 7.2 16.2 7.2C16.0375 7.2 15.8969 7.14062 15.7781 7.02187C15.6594 6.90312 15.6 6.7625 15.6 6.6C15.6 6.4375 15.6594 6.29687 15.7781 6.17812C15.8969 6.05937 16.0375 6 16.2 6ZM10.2 7.2C10.3625 7.2 10.5031 7.25937 10.6219 7.37812C10.7406 7.49687 10.8 7.6375 10.8 7.8C10.8 7.9625 10.7406 8.10312 10.6219 8.22187C10.5031 8.34062 10.3625 8.4 10.2 8.4C10.0375 8.4 9.89688 8.34062 9.77813 8.22187C9.65938 8.10312 9.6 7.9625 9.6 7.8C9.6 7.6375 9.65938 7.49687 9.77813 7.37812C9.89688 7.25937 10.0375 7.2 10.2 7.2ZM12.6 8.4C12.4375 8.4 12.2969 8.34062 12.1781 8.22187C12.0594 8.10312 12 7.9625 12 7.8C12 7.6375 12.0594 7.49687 12.1781 7.37812C12.2969 7.25937 12.4375 7.2 12.6 7.2C12.7625 7.2 12.9031 7.25937 13.0219 7.37812C13.1406 7.49687 13.2 7.6375 13.2 7.8C13.2 7.9625 13.1406 8.10312 13.0219 8.22187C12.9031 8.34062 12.7625 8.4 12.6 8.4ZM15 7.2C15.1625 7.2 15.3031 7.25937 15.4219 7.37812C15.5406 7.49687 15.6 7.6375 15.6 7.8C15.6 7.9625 15.5406 8.10312 15.4219 8.22187C15.3031 8.34062 15.1625 8.4 15 8.4C14.8375 8.4 14.6969 8.34062 14.5781 8.22187C14.4594 8.10312 14.4 7.9625 14.4 7.8C14.4 7.6375 14.4594 7.49687 14.5781 7.37812C14.6969 7.25937 14.8375 7.2 15 7.2ZM11.4 9.6C11.2375 9.6 11.0969 9.54062 10.9781 9.42187C10.8594 9.30312 10.8 9.1625 10.8 9C10.8 8.8375 10.8594 8.69687 10.9781 8.57812C11.0969 8.45937 11.2375 8.4 11.4 8.4C11.5625 8.4 11.7031 8.45937 11.8219 8.57812C11.9406 8.69687 12 8.8375 12 9C12 9.1625 11.9406 9.30312 11.8219 9.42187C11.7031 9.54062 11.5625 9.6 11.4 9.6ZM13.8 8.4C13.9625 8.4 14.1031 8.45937 14.2219 8.57812C14.3406 8.69687 14.4 8.8375 14.4 9C14.4 9.1625 14.3406 9.30312 14.2219 9.42187C14.1031 9.54062 13.9625 9.6 13.8 9.6C13.6375 9.6 13.4969 9.54062 13.3781 9.42187C13.2594 9.30312 13.2 9.1625 13.2 9C13.2 8.8375 13.2594 8.69687 13.3781 8.57812C13.4969 8.45937 13.6375 8.4 13.8 8.4ZM10.2 9.6C10.3625 9.6 10.5031 9.65937 10.6219 9.77812C10.7406 9.89687 10.8 10.0375 10.8 10.2C10.8 10.3625 10.7406 10.5031 10.6219 10.6219C10.5031 10.7406 10.3625 10.8 10.2 10.8C10.0375 10.8 9.89688 10.7406 9.77813 10.6219C9.65938 10.5031 9.6 10.3625 9.6 10.2C9.6 10.0375 9.65938 9.89687 9.77813 9.77812C9.89688 9.65937 10.0375 9.6 10.2 9.6ZM12.6 9.6C12.7625 9.6 12.9031 9.65937 13.0219 9.77812C13.1406 9.89687 13.2 10.0375 13.2 10.2C13.2 10.3625 13.1406 10.5031 13.0219 10.6219C12.9031 10.7406 12.7625 10.8 12.6 10.8C12.4375 10.8 12.2969 10.7406 12.1781 10.6219C12.0594 10.5031 12 10.3625 12 10.2C12 10.0375 12.0594 9.89687 12.1781 9.77812C12.2969 9.65937 12.4375 9.6 12.6 9.6ZM11.4 10.8C11.5625 10.8 11.7031 10.8594 11.8219 10.9781C11.9406 11.0969 12 11.2375 12 11.4C12 11.5625 11.9406 11.7031 11.8219 11.8219C11.7031 11.9406 11.5625 12 11.4 12C11.2375 12 11.0969 11.9406 10.9781 11.8219C10.8594 11.7031 10.8 11.5625 10.8 11.4C10.8 11.2375 10.8594 11.0969 10.9781 10.9781C11.0969 10.8594 11.2375 10.8 11.4 10.8ZM10.2 12C10.3625 12 10.5031 12.0594 10.6219 12.1781C10.7406 12.2969 10.8 12.4375 10.8 12.6C10.8 12.7625 10.7406 12.9031 10.6219 13.0219C10.5031 13.1406 10.3625 13.2 10.2 13.2C10.0375 13.2 9.89688 13.1406 9.77813 13.0219C9.65938 12.9031 9.6 12.7625 9.6 12.6C9.6 12.4375 9.65938 12.2969 9.77813 12.1781C9.89688 12.0594 10.0375 12 10.2 12Z" fill="#B9BED1"/>
</svg>
