<svg width="14" height="18" viewBox="0 0 14 18" fill="none" xmlns="http://www.w3.org/2000/svg">
<path fill-rule="evenodd" clip-rule="evenodd" d="M7 17.0558C7 17.0558 14 12.4042 14 6.97739C14 5.12687 13.2625 3.35214 11.9497 2.04363C10.637 0.735115 8.85652 0 7 0C5.14348 0 3.36301 0.735115 2.05025 2.04363C0.737498 3.35214 0 5.12687 0 6.97739C0 12.4042 7 17.0558 7 17.0558ZM9.33289 6.9774C9.33289 8.2619 8.28823 9.30319 6.99957 9.30319C5.71092 9.30319 4.66626 8.2619 4.66626 6.9774C4.66626 5.6929 5.71092 4.65161 6.99957 4.65161C8.28823 4.65161 9.33289 5.6929 9.33289 6.9774Z" fill="#9BA0B5"/>
</svg>
