<svg width="41" height="56" viewBox="0 0 41 56" fill="none" xmlns="http://www.w3.org/2000/svg">
<path d="M10.0176 43.9677H30.0029V47.9647H10.0176V43.9677Z" fill="white"/>
<path d="M14.0117 51.9618H26.0029V55.9589H14.0117V51.9618Z" fill="white"/>
<path d="M20.0052 0C14.7048 0 9.62142 2.1056 5.87343 5.85358C2.12545 9.60156 0.0198531 14.6849 0.0198531 19.9854C-0.115299 22.8899 0.441092 25.785 1.64326 28.4326C2.84542 31.0801 4.659 33.4044 6.93479 35.2142C8.93333 37.0729 10.0125 38.1321 10.0125 39.9707H14.0096C14.0096 36.2934 11.7912 34.2349 9.63282 32.2564C7.7649 30.826 6.27621 28.9594 5.29715 26.82C4.31809 24.6807 3.87851 22.334 4.01693 19.9854C4.01693 15.745 5.7014 11.6783 8.69979 8.67994C11.6982 5.68155 15.7649 3.99707 20.0052 3.99707C24.2456 3.99707 28.3123 5.68155 31.3106 8.67994C34.309 11.6783 35.9935 15.745 35.9935 19.9854C36.1296 22.3357 35.687 24.6836 34.7044 26.823C33.7218 28.9625 32.2292 30.8281 30.3576 32.2564C28.2192 34.2549 26.0008 36.2535 26.0008 39.9707H29.9979C29.9979 38.1321 31.0571 37.0729 33.0756 35.1942C35.3499 33.3875 37.1626 31.0667 38.3648 28.4226C39.5669 25.7785 40.1242 22.8868 39.9906 19.9854C39.9906 17.3609 39.4736 14.762 38.4693 12.3373C37.4649 9.91256 35.9928 7.70939 34.137 5.85358C32.2812 3.99777 30.078 2.52565 27.6533 1.5213C25.2285 0.516937 22.6297 0 20.0052 0Z" fill="white"/>
</svg>
