<svg width="19" height="17" viewBox="0 0 19 17" fill="none" xmlns="http://www.w3.org/2000/svg">
<path d="M6.138 11.4736C5.13 11.9376 4.448 12.4766 4.054 13.0716C3.67057 13.6494 3.29882 14.2348 2.939 14.8276C4.063 15.0716 4.908 14.9546 5.517 14.5466C6.369 13.9766 6.925 13.3256 7.234 12.5696L6.138 11.4736ZM7.533 10.0406L8.553 11.0606C9.295 10.6786 10.042 10.0736 10.787 9.2286C11.926 7.9386 13.848 5.6406 16.544 2.3486C16.5762 2.30799 16.5924 2.25694 16.5894 2.20518C16.5864 2.15342 16.5644 2.10458 16.5277 2.06798C16.4909 2.03139 16.442 2.00959 16.3903 2.00675C16.3385 2.00391 16.2875 2.02024 16.247 2.0526C12.961 4.7456 10.664 6.6676 9.366 7.8106C8.517 8.5566 7.912 9.3016 7.533 10.0406ZM6.63 16.2086C5.015 17.2896 2.804 17.1906 0 15.9106C0.743196 14.5646 1.53949 13.2485 2.387 11.9656C3.042 10.9786 4.099 10.1716 5.557 9.5436C6.042 8.4176 6.872 7.3406 8.044 6.3076C9.364 5.1456 11.676 3.2116 14.98 0.504603C15.404 0.155156 15.9429 -0.0238307 16.4917 0.00255109C17.0405 0.0289329 17.5598 0.258791 17.9483 0.647296C18.3368 1.0358 18.5667 1.55509 18.5931 2.10388C18.6194 2.65268 18.4404 3.19162 18.091 3.6156C15.381 6.9256 13.446 9.2366 12.287 10.5506C11.309 11.6586 10.287 12.4616 9.22 12.9586C8.79 14.2566 7.927 15.3386 6.63 16.2076V16.2086Z" fill="black"/>
</svg>
