<svg width="21" height="16" viewBox="0 0 21 16" fill="none" xmlns="http://www.w3.org/2000/svg">
<path d="M15.2251 5.3H15.7251V4.8V2.4C15.7251 2.34723 15.7342 2.32626 15.7396 2.31541C15.7473 2.30024 15.7673 2.2689 15.8282 2.21536L17.6464 0.615357C17.8212 0.461548 18.0837 0.461548 18.2585 0.615357L20.0766 2.21536C20.1375 2.2689 20.1575 2.30024 20.1652 2.31541C20.1707 2.32626 20.1797 2.34723 20.1797 2.4V15.2C20.1797 15.3056 20.1438 15.3655 20.0994 15.4046C20.0492 15.4488 19.9474 15.5 19.7706 15.5H16.1342C15.9574 15.5 15.8557 15.4488 15.8055 15.4046C15.761 15.3655 15.7251 15.3056 15.7251 15.2V12.8V12.3H15.2251H13.407H12.907V12.8V15.2C12.907 15.3056 12.8711 15.3655 12.8266 15.4046C12.7764 15.4488 12.6747 15.5 12.4979 15.5H8.86151C8.6847 15.5 8.58294 15.4488 8.53273 15.4046C8.48829 15.3655 8.45241 15.3056 8.45241 15.2V12.8V12.3H7.95241H6.13423H5.63423V12.8V15.2C5.63423 15.3056 5.59836 15.3655 5.55392 15.4046C5.50371 15.4488 5.40195 15.5 5.22514 15.5H1.58878C1.41197 15.5 1.31021 15.4488 1.26 15.4046C1.21556 15.3655 1.17969 15.3056 1.17969 15.2V2.4C1.17969 2.34723 1.1887 2.32626 1.19418 2.31541C1.20184 2.30024 1.22189 2.2689 1.28273 2.21536L3.10091 0.615357C3.2757 0.461548 3.53822 0.461548 3.71301 0.615357L5.53119 2.21536C5.59204 2.2689 5.61208 2.30024 5.61974 2.31541C5.62522 2.32626 5.63423 2.34723 5.63423 2.4V4.8V5.3H6.13423H7.95241H8.45241V4.8V2.4C8.45241 2.34723 8.46142 2.32626 8.4669 2.31541C8.47457 2.30024 8.49461 2.2689 8.55546 2.21536L10.3736 0.615357C10.5484 0.461548 10.811 0.461548 10.9857 0.615357L12.8039 2.21536C12.8648 2.2689 12.8848 2.30024 12.8925 2.31541C12.898 2.32626 12.907 2.34723 12.907 2.4V4.8V5.3H13.407H15.2251ZM4.31605 14.9H4.81605V14.4V2.71999V2.49396L4.64637 2.34464L3.73727 1.54464L3.40696 1.25396L3.07665 1.54464L2.16756 2.34464L1.99787 2.49396V2.71999V14.4V14.9H2.49787H4.31605ZM5.63423 11.2V11.7H6.13423H7.95241H8.45241V11.2V6.4V5.9H7.95241H6.13423H5.63423V6.4V11.2ZM11.5888 14.9H12.0888V14.4V2.71999V2.49396L11.9191 2.34464L11.01 1.54464L10.6797 1.25396L10.3494 1.54464L9.44028 2.34464L9.2706 2.49396V2.71999V14.4V14.9H9.7706H11.5888ZM12.907 11.2V11.7H13.407H15.2251H15.7251V11.2V6.4V5.9H15.2251H13.407H12.907V6.4V11.2ZM18.8615 14.9H19.3615V14.4V2.71999V2.49396L19.1918 2.34464L18.2827 1.54464L17.9524 1.25396L17.6221 1.54464L16.713 2.34464L16.5433 2.49396V2.71999V14.4V14.9H17.0433H18.8615Z" fill="#064D5D" stroke="#064D5D" />
</svg>
