<svg width="18" height="23" viewBox="0 0 18 23" fill="none" xmlns="http://www.w3.org/2000/svg">
<path d="M18 19.2273C18 19.7642 17.7379 20.2479 17.2138 20.6783C16.6896 21.1087 15.9908 21.4538 15.1172 21.7138C14.2436 21.9737 13.2848 22.1697 12.2408 22.3018C11.1967 22.4339 10.1165 22.5 9 22.5C7.88352 22.5 6.80327 22.4339 5.75923 22.3018C4.7152 22.1697 3.75639 21.9737 2.88281 21.7138C2.00923 21.4538 1.31037 21.1087 0.786222 20.6783C0.262074 20.2479 0 19.7642 0 19.2273C0 18.8097 0.140625 18.4325 0.421875 18.0959C0.703125 17.7592 1.09091 17.4759 1.58523 17.2457C2.07955 17.0156 2.58239 16.826 3.09375 16.6768C3.60511 16.5277 4.16335 16.402 4.76847 16.2997C4.99006 16.2571 5.1946 16.3018 5.3821 16.4339C5.5696 16.5661 5.6804 16.7429 5.71449 16.9645C5.7571 17.1861 5.71236 17.3906 5.58026 17.5781C5.44815 17.7656 5.27131 17.8764 5.04972 17.9105C4.5554 17.9957 4.10369 18.0959 3.6946 18.2109C3.28551 18.326 2.95952 18.4347 2.71662 18.5369C2.47372 18.6392 2.26705 18.7393 2.09659 18.8374C1.92614 18.9354 1.80895 19.0185 1.74503 19.0866C1.68111 19.1548 1.64489 19.206 1.63636 19.2401C1.66193 19.3338 1.77699 19.4467 1.98153 19.5788C2.18608 19.7109 2.49716 19.8516 2.91477 20.0007C3.33239 20.1499 3.81818 20.2884 4.37216 20.4162C4.92614 20.544 5.61009 20.6506 6.42401 20.7358C7.23793 20.821 8.09659 20.8636 9 20.8636C9.90341 20.8636 10.7621 20.821 11.576 20.7358C12.3899 20.6506 13.0739 20.544 13.6278 20.4162C14.1818 20.2884 14.6676 20.1477 15.0852 19.9943C15.5028 19.8409 15.8139 19.6982 16.0185 19.5661C16.223 19.4339 16.3381 19.3168 16.3636 19.2145C16.3551 19.1804 16.3189 19.1335 16.255 19.0739C16.1911 19.0142 16.0739 18.9332 15.9034 18.831C15.733 18.7287 15.5263 18.6286 15.2834 18.5305C15.0405 18.4325 14.7145 18.326 14.3054 18.2109C13.8963 18.0959 13.4446 17.9957 12.9503 17.9105C12.7287 17.8764 12.5518 17.7656 12.4197 17.5781C12.2876 17.3906 12.2429 17.1861 12.2855 16.9645C12.3196 16.7429 12.4304 16.5661 12.6179 16.4339C12.8054 16.3018 13.0099 16.2571 13.2315 16.2997C13.8366 16.402 14.3949 16.5277 14.9062 16.6768C15.4176 16.826 15.9205 17.0156 16.4148 17.2457C16.9091 17.4759 17.2969 17.7592 17.5781 18.0959C17.8594 18.4325 18 18.8097 18 19.2273ZM13.0909 7.77273V12.6818C13.0909 12.9034 13.0099 13.0952 12.848 13.2571C12.6861 13.419 12.4943 13.5 12.2727 13.5H11.4545V18.4091C11.4545 18.6307 11.3736 18.8224 11.2116 18.9844C11.0497 19.1463 10.858 19.2273 10.6364 19.2273H7.36364C7.14205 19.2273 6.95028 19.1463 6.78835 18.9844C6.62642 18.8224 6.54545 18.6307 6.54545 18.4091V13.5H5.72727C5.50568 13.5 5.31392 13.419 5.15199 13.2571C4.99006 13.0952 4.90909 12.9034 4.90909 12.6818V7.77273C4.90909 7.32102 5.06889 6.93537 5.38849 6.61577C5.7081 6.29616 6.09375 6.13636 6.54545 6.13636H11.4545C11.9062 6.13636 12.2919 6.29616 12.6115 6.61577C12.9311 6.93537 13.0909 7.32102 13.0909 7.77273ZM11.8636 2.86364C11.8636 3.65625 11.5845 4.33168 11.0263 4.88991C10.468 5.44815 9.79261 5.72727 9 5.72727C8.20739 5.72727 7.53196 5.44815 6.97372 4.88991C6.41548 4.33168 6.13636 3.65625 6.13636 2.86364C6.13636 2.07102 6.41548 1.3956 6.97372 0.837358C7.53196 0.279119 8.20739 0 9 0C9.79261 0 10.468 0.279119 11.0263 0.837358C11.5845 1.3956 11.8636 2.07102 11.8636 2.86364Z" fill="#9BA0B5"/>
</svg>
