<svg width="18" height="23" viewBox="0 0 18 23" fill="none" xmlns="http://www.w3.org/2000/svg">
<path d="M13 8.20001H15C15.5304 8.20001 16.0391 8.41073 16.4142 8.7858C16.7893 9.16087 17 9.66958 17 10.2V19.8C17 20.3304 16.7893 20.8392 16.4142 21.2142C16.0391 21.5893 15.5304 21.8 15 21.8H3C2.46957 21.8 1.96086 21.5893 1.58579 21.2142C1.21071 20.8392 1 20.3304 1 19.8V10.2C1 9.66958 1.21071 9.16087 1.58579 8.7858C1.96086 8.41073 2.46957 8.20001 3 8.20001H5" stroke="#9BA0B5" stroke-width="2" stroke-linecap="round" stroke-linejoin="round"/>
<path d="M13 5L9 1L5 5" stroke="#9BA0B5" stroke-width="2" stroke-linecap="round" stroke-linejoin="round"/>
<path d="M9 14.65V1" stroke="#9BA0B5" stroke-width="2" stroke-linecap="round" stroke-linejoin="round"/>
</svg>
