<svg width="30" height="45" viewBox="0 0 30 45" fill="none" xmlns="http://www.w3.org/2000/svg">
<path d="M2.41776 0H27.5824C28.2888 0 28.9171 0.348414 29.3602 0.909669C29.755 1.40982 30.0001 2.08436 30.0001 2.8125V42.1876C30.0001 42.9157 29.755 43.5902 29.3602 44.0904C28.9172 44.6516 28.2888 45.0001 27.5824 45.0001H2.41776C1.71135 45.0001 1.08303 44.6516 0.639907 44.0904C0.245125 43.5903 0 42.9157 0 42.1876V2.8125C0 2.08436 0.245056 1.40978 0.639907 0.909669C1.08296 0.348449 1.71131 0 2.41776 0ZM27.5824 1.87505H2.41776C2.31011 1.87505 2.19821 1.94855 2.10478 2.06692C1.96305 2.24644 1.87505 2.50946 1.87505 2.81251V42.1876C1.87505 42.4906 1.96308 42.7536 2.10478 42.9331C2.19824 43.0515 2.31011 43.125 2.41776 43.125H27.5824C27.69 43.125 27.8019 43.0515 27.8954 42.9331C28.0371 42.7536 28.1251 42.4906 28.1251 42.1876V2.81251C28.1251 2.50946 28.0371 2.24648 27.8954 2.06692C27.8019 1.94855 27.69 1.87505 27.5824 1.87505Z" fill="white"/>
<path d="M15 36.3311C15.8086 36.3311 16.5408 36.6589 17.0708 37.1889C17.6008 37.719 17.9287 38.4512 17.9287 39.2597C17.9287 40.0684 17.6008 40.8006 17.0708 41.3306C16.5408 41.8606 15.8086 42.1884 15 42.1884C14.1914 42.1884 13.4592 41.8606 12.9292 41.3306C12.3992 40.8006 12.0713 40.0684 12.0713 39.2597C12.0713 38.4512 12.3992 37.719 12.9292 37.1889C13.4592 36.6589 14.1914 36.3311 15 36.3311ZM15.7451 38.5146C15.5545 38.324 15.2911 38.2061 15 38.2061C14.7089 38.2061 14.4454 38.324 14.2549 38.5146C14.0643 38.7052 13.9463 38.9687 13.9463 39.2597C13.9463 39.5508 14.0643 39.8143 14.2549 40.0049C14.4454 40.1955 14.7089 40.3134 15 40.3134C15.2911 40.3134 15.5545 40.1955 15.7451 40.0049C15.9357 39.8143 16.0536 39.5508 16.0536 39.2597C16.0536 38.9687 15.9357 38.7052 15.7451 38.5146Z" fill="white"/>
<path d="M1.875 33.751H29.0625V35.626H1.875V33.751Z" fill="white"/>
<path d="M23.7815 17.5006L14.4412 9.83203L5.10083 17.5006L3.91431 16.0577L13.8479 7.90213L14.4412 7.41504L15.0344 7.90213L24.968 16.0577L23.7815 17.5006Z" fill="white"/>
<path d="M22.4998 14.0635V26.6087V27.5463H21.5623H7.3201H6.38257V26.6087V14.0635H8.25754V25.6712H20.6247V14.0635H22.4998Z" fill="white"/>
<path d="M11.9546 15.7234H16.9286H17.8661V16.6609V21.6348V22.5723H16.9286H11.9546H11.0171V21.6348V16.6609V15.7234H11.9546ZM15.991 17.5984H12.8921V20.6973H15.991V17.5984Z" fill="white"/>
</svg>
