<svg width="39" height="39" viewBox="0 0 39 39" fill="none" xmlns="http://www.w3.org/2000/svg">
<path d="M2.78571 0H0V36.2143C0 36.9531 0.293494 37.6617 0.815917 38.1841C1.33834 38.7065 2.0469 39 2.78571 39H39V36.2143H2.78571V0Z" fill="white"/>
<path d="M38.9989 9.75H29.2489V12.5357H34.2492L23.6775 23.1075L17.7021 17.1182C17.5726 16.9877 17.4186 16.884 17.2488 16.8133C17.0791 16.7426 16.897 16.7062 16.7132 16.7062C16.5293 16.7062 16.3472 16.7426 16.1775 16.8133C16.0078 16.884 15.8537 16.9877 15.7242 17.1182L5.57031 27.2861L7.53424 29.25L16.7132 20.0711L22.6885 26.0604C22.818 26.1909 22.9721 26.2945 23.1418 26.3652C23.3115 26.436 23.4936 26.4724 23.6775 26.4724C23.8613 26.4724 24.0434 26.436 24.2131 26.3652C24.3828 26.2945 24.5369 26.1909 24.6664 26.0604L36.2132 14.4996V19.5H38.9989V9.75Z" fill="white"/>
</svg>
