<svg width="21" height="17" viewBox="0 0 21 17" fill="none" xmlns="http://www.w3.org/2000/svg">
<path fill-rule="evenodd" clip-rule="evenodd" d="M4.2 7.09695H2.8V0.0969543H4.2V7.09695ZM2.8 16.897H4.2V12.697H2.8V16.897ZM9.8 16.897H11.2V8.49695H9.8V16.897ZM16.8 16.897H18.2V14.097H16.8V16.897ZM18.2 0.0969543H16.8V8.49695H18.2V0.0969543ZM11.2 0.0969543H9.8V2.89695H11.2V0.0969543ZM5.6 8.49695H1.4C0.63 8.49695 0 9.12695 0 9.89695C0 10.667 0.63 11.297 1.4 11.297H5.6C6.37 11.297 7 10.667 7 9.89695C7 9.12695 6.37 8.49695 5.6 8.49695ZM12.6 4.29695H8.4C7.63 4.29695 7 4.92695 7 5.69695C7 6.46695 7.63 7.09695 8.4 7.09695H12.6C13.37 7.09695 14 6.46695 14 5.69695C14 4.92695 13.37 4.29695 12.6 4.29695ZM19.6 9.89695H15.4C14.63 9.89695 14 10.527 14 11.297C14 12.067 14.63 12.697 15.4 12.697H19.6C20.37 12.697 21 12.067 21 11.297C21 10.527 20.37 9.89695 19.6 9.89695Z" fill="white"/>
</svg>
