<svg width="19" height="21" viewBox="0 0 19 21" fill="none" xmlns="http://www.w3.org/2000/svg">
<path d="M5.8918 12.29C5.75104 12.1515 5.57247 12.0576 5.37854 12.0203C5.18461 11.9829 4.98396 12.0037 4.8018 12.08C4.67771 12.1249 4.56501 12.1966 4.47169 12.2899C4.37837 12.3832 4.30671 12.4959 4.2618 12.62C4.19702 12.7721 4.17094 12.9378 4.18591 13.1025C4.20087 13.2671 4.25641 13.4254 4.34756 13.5633C4.4387 13.7012 4.56261 13.8144 4.7082 13.8927C4.85378 13.9709 5.0165 14.0119 5.1818 14.0119C5.3471 14.0119 5.50982 13.9709 5.65541 13.8927C5.80099 13.8144 5.9249 13.7012 6.01604 13.5633C6.10719 13.4254 6.16273 13.2671 6.17769 13.1025C6.19266 12.9378 6.16658 12.7721 6.1018 12.62C6.05121 12.4988 5.98018 12.3872 5.8918 12.29ZM13.8918 12.29C13.6984 12.1116 13.4449 12.0125 13.1818 12.0125C12.9187 12.0125 12.6652 12.1116 12.4718 12.29C12.3834 12.3872 12.3124 12.4988 12.2618 12.62C12.1839 12.8019 12.1622 13.0029 12.1997 13.1972C12.2371 13.3915 12.3319 13.5701 12.4718 13.71C12.569 13.7984 12.6806 13.8694 12.8018 13.92C12.9215 13.9728 13.0509 14.0001 13.1818 14.0001C13.3127 14.0001 13.4421 13.9728 13.5618 13.92C13.6829 13.8692 13.7945 13.7982 13.8918 13.71C14.0317 13.5701 14.1265 13.3915 14.1639 13.1972C14.2014 13.0029 14.1797 12.8019 14.1018 12.62C14.0512 12.4988 13.9802 12.3872 13.8918 12.29ZM16.4918 16.895C17.1997 16.3307 17.74 15.5838 18.0544 14.7348C18.3688 13.8859 18.4453 12.9673 18.2758 12.078L16.7758 4.078C16.5608 2.93192 15.9519 1.89703 15.0546 1.15236C14.1573 0.407682 13.0279 5.97978e-05 11.8618 0H6.5008C5.33489 0.000292977 4.20574 0.408021 3.30861 1.15267C2.41149 1.89733 1.8028 2.93208 1.5878 4.078L0.0878012 12.078C-0.0816206 12.9673 -0.0048995 13.8861 0.309682 14.735C0.624263 15.5839 1.16475 16.3308 1.8728 16.895L0.474801 18.293C0.379291 18.3852 0.303109 18.4956 0.2507 18.6176C0.198291 18.7396 0.170705 18.8708 0.169551 19.0036C0.168397 19.1364 0.193699 19.2681 0.24398 19.391C0.294261 19.5138 0.368514 19.6255 0.462406 19.7194C0.556299 19.8133 0.667951 19.8875 0.790847 19.9378C0.913744 19.9881 1.04542 20.0134 1.1782 20.0123C1.31098 20.0111 1.4422 19.9835 1.56421 19.9311C1.68621 19.8787 1.79655 19.8025 1.8888 19.707L3.7588 17.837C4.16402 17.943 4.58094 17.9978 4.9998 18H13.3618C13.7813 17.9983 14.1989 17.9439 14.6048 17.838L16.4738 19.707C16.6624 19.8892 16.915 19.99 17.1772 19.9877C17.4394 19.9854 17.6902 19.8802 17.8756 19.6948C18.061 19.5094 18.1662 19.2586 18.1685 18.9964C18.1708 18.7342 18.07 18.4816 17.8878 18.293L16.4918 16.895ZM3.5518 4.447C3.68119 3.75922 4.04681 3.13825 4.58546 2.69144C5.12412 2.24463 5.80195 2.00006 6.5018 2H11.8638C12.5633 2.00052 13.2407 2.24531 13.7789 2.69208C14.3172 3.13885 14.6825 3.75955 14.8118 4.447L15.1588 6.297C14.4122 7.14672 13.493 7.82745 12.4625 8.29379C11.432 8.76012 10.3139 9.00134 9.1828 9.00134C8.05169 9.00134 6.93359 8.76012 5.90309 8.29379C4.87259 7.82745 3.95338 7.14672 3.2068 6.297L3.5518 4.447ZM15.6688 14.916C15.388 15.2554 15.0357 15.5285 14.6371 15.7159C14.2384 15.9033 13.8033 16.0003 13.3628 16H5.0008C4.56003 15.9999 4.1247 15.9027 3.72576 15.7153C3.32682 15.5279 2.97408 15.2548 2.69263 14.9156C2.41118 14.5764 2.20794 14.1794 2.09735 13.7527C1.98676 13.326 1.97155 12.8802 2.0528 12.447L2.7638 8.655C4.55937 10.1696 6.83274 11.0004 9.1818 11.0004C11.5309 11.0004 13.8042 10.1696 15.5998 8.655L16.3098 12.447C16.3918 12.8803 16.3769 13.3263 16.2663 13.7532C16.1556 14.18 15.9519 14.5771 15.6698 14.916H15.6688Z" fill="black"/>
</svg>
