<svg width="45" height="45" viewBox="0 0 45 45" fill="none" xmlns="http://www.w3.org/2000/svg">
<path fill-rule="evenodd" clip-rule="evenodd" d="M32.7898 32.2219C33.0434 32.0322 33.5538 31.5036 33.6757 31.3802C34.277 30.7714 34.8762 30.1644 35.5245 29.6045C36.3818 28.8638 37.6481 27.913 38.832 27.913C41.198 27.913 43.1251 29.8378 43.1251 32.2043C43.1251 33.2883 42.7142 34.3204 41.9746 35.1088L41.9618 35.129C41.9266 35.185 41.8786 35.2432 41.8373 35.2945C41.6851 35.483 41.5218 35.6658 41.359 35.8451C40.4334 36.8647 39.4365 37.8481 38.4542 38.8123C37.79 39.4642 37.1257 40.1162 36.4665 40.7731C35.8927 41.3449 35.2589 41.8545 34.5953 42.3181C34.5676 42.3441 34.5392 42.3671 34.5089 42.3909L34.4421 42.4435H34.4268C31.914 44.1599 29.0692 45.0004 26.0263 45.0004C22.9499 45.0004 19.9516 44.1226 17.3583 42.469C16.2856 41.7849 15.1145 41.2558 13.8609 41.1326V43.5007V44.483H12.8787H0.982232H0V43.5007V24.8389V23.8567H0.982232H12.8787H13.8609V24.8389V26.3063C15.0582 26.1313 16.3077 26.083 17.4891 26.1003C19.3577 26.1277 21.2516 26.3307 23.0823 26.7064C26.5611 27.4205 30.8615 29.0105 32.7898 32.2218V32.2219ZM13.8609 38.7739C15.523 38.8961 17.1468 39.5013 18.5687 40.3536H18.5896L18.6524 40.3967C20.8158 41.8817 23.4092 42.6302 26.0263 42.6302C28.6085 42.6302 31.2134 41.9227 33.3387 40.4307C33.5988 40.2481 33.8464 40.0492 34.0857 39.8402L34.1235 39.8072C34.3886 39.5054 34.6826 39.2142 34.965 38.931C35.5694 38.3249 36.1818 37.7259 36.7925 37.1261C37.3715 36.5576 37.9459 35.9834 38.518 35.408C38.8686 35.0555 39.2182 34.702 39.5645 34.3453C39.7904 34.1126 40.0264 33.8744 40.2389 33.6296C40.5673 33.2512 40.7561 32.7116 40.7531 32.2122C40.747 31.1552 39.8943 30.2827 38.832 30.2827C37.9414 30.2827 36.1769 31.9029 35.5597 32.4976C35.0084 33.0288 34.4761 33.5888 33.9757 34.1682C33.7729 34.4029 33.5741 34.6423 33.3851 34.8883C33.2579 35.054 33.1283 35.2284 33.0191 35.4071C32.4806 37.1149 30.9436 38.3137 29.1669 38.4153V38.4414L28.9159 38.4357C28.0008 38.4151 27.0501 38.215 26.168 37.9817C24.8281 37.6272 23.4991 37.1535 22.2048 36.6599L21.9753 36.5723L22.8219 34.3556L23.0512 34.4431C24.2206 34.8893 25.4201 35.3264 26.6263 35.6627C27.2457 35.8354 27.9409 36.0061 28.5953 36.0533L28.5991 36.0393H28.7873C28.84 36.0393 28.8745 36.0501 28.9223 36.0574C29.9836 36.0534 30.8444 35.191 30.8444 34.1288C30.8444 33.6592 30.6806 33.1947 30.3513 32.8549C28.859 31.3148 26.8846 30.2411 24.8734 29.5422C22.5066 28.7198 19.947 28.3582 17.4463 28.3582C16.2471 28.3582 15.0461 28.4503 13.8609 28.6379V38.7738L13.8609 38.7739ZM11.8965 25.8212H1.96447V42.5185H11.8965V25.8212Z" fill="white"/>
<path fill-rule="evenodd" clip-rule="evenodd" d="M20.0276 23.5851H39.8353V10.9333H41.6554V25.4053H18.2075V10.9333H20.0276V23.5851Z" fill="white"/>
<path fill-rule="evenodd" clip-rule="evenodd" d="M29.9315 11.0046L29.0388 12.1879H15.1167L15.5603 10.968L18.2362 3.60913H41.6267L41.8448 4.20938L44.7461 12.1879H30.8241L29.9314 11.0046L29.9315 11.0046ZM32.2317 10.3678H42.1513L40.3555 5.42926H19.5074L17.7115 10.3678H27.6311L29.9314 7.31891L32.2316 10.3678H32.2317Z" fill="white"/>
<path d="M40.0104 0V5.28943H36.0728V0C37.3853 0 38.6979 0 40.0104 0ZM38.7762 1.23421H37.307V4.05519H38.7762V1.23421Z" fill="white"/>
<path d="M27.8765 16.8667H31.9857H32.9233V17.8042V24.3757V25.3132H31.9857H27.8765H26.939V24.3757V17.8042V16.8667H27.8765ZM31.0482 18.7418H28.814V23.4382H31.0482V18.7418Z" fill="white"/>
</svg>
