<svg width="25" height="25" viewBox="0 0 25 25" fill="none" xmlns="http://www.w3.org/2000/svg">
<path d="M1.89261 10.799L2.2266 10.465V18.9261C2.2266 19.5941 2.67192 20.0394 3.3399 20.0394H16.6995C17.3675 20.0394 17.8128 19.5941 17.8128 18.9261V10.465L18.1468 10.799C18.5921 11.2443 19.2601 11.2443 19.7054 10.799C20.1507 10.3537 20.1507 9.68571 19.7054 9.24039C17.0335 6.56847 13.4709 3.00591 10.799 0.33399C10.3537 -0.11133 9.68571 -0.11133 9.24039 0.33399C6.56847 3.00591 2.89458 6.6798 0.33399 9.24039C-0.11133 9.68571 -0.11133 10.3537 0.33399 10.799C0.77931 11.2443 1.44729 11.2443 1.89261 10.799ZM10.0197 2.67192L15.5862 8.23842V17.8128H4.4532V8.23842L10.0197 2.67192Z" fill="#064D5D"/>
<path d="M18.9261 20.0394C18.2581 20.0394 17.8128 20.4847 17.8128 21.1527H2.2266C2.2266 20.4847 1.78128 20.0394 1.1133 20.0394C0.44532 20.0394 0 20.4847 0 21.1527V23.3793C0 24.0472 0.44532 24.4926 1.1133 24.4926C1.78128 24.4926 2.2266 24.0472 2.2266 23.3793H17.8128C17.8128 24.0472 18.2581 24.4926 18.9261 24.4926C19.5941 24.4926 20.0394 24.0472 20.0394 23.3793V21.1527C20.0394 20.4847 19.5941 20.0394 18.9261 20.0394Z" fill="#064D5D"/>
<path d="M23.3731 17.8128V2.2266C24.0411 2.2266 24.4864 1.78128 24.4864 1.1133C24.4864 0.44532 24.0411 0 23.3731 0H21.1465C20.4785 0 20.0332 0.44532 20.0332 1.1133C20.0332 1.78128 20.4785 2.2266 21.1465 2.2266V17.8128C20.4785 17.8128 20.0332 18.2581 20.0332 18.9261C20.0332 19.5941 20.4785 20.0394 21.1465 20.0394H23.3731C24.0411 20.0394 24.4864 19.5941 24.4864 18.9261C24.4864 18.2581 24.0411 17.8128 23.3731 17.8128Z" fill="#064D5D"/>
</svg>
