<svg width="25" height="18" viewBox="0 0 25 18" fill="none" xmlns="http://www.w3.org/2000/svg">
<path d="M23.3793 8.90639C21.264 8.90639 8.23842 8.90639 3.3399 8.90639V3.3399C3.3399 2.67192 3.78522 2.2266 4.4532 2.2266C5.12118 2.2266 5.5665 2.67192 5.5665 3.3399V4.4532C5.5665 5.12118 6.01182 5.5665 6.6798 5.5665C7.34778 5.5665 7.7931 5.12118 7.7931 4.4532V3.3399C7.7931 1.44729 6.34581 0 4.4532 0C2.56059 0 1.1133 1.44729 1.1133 3.3399V8.90639C0.44532 8.90639 0 9.35171 0 10.0197C0 10.6877 0.44532 11.133 1.1133 11.133H1.22464C1.4473 12.6916 2.11526 14.1389 3.22856 15.2522L2.56059 15.9202C2.11527 16.3655 2.11527 17.0335 2.56059 17.4788C3.00591 17.9241 3.67388 17.9241 4.1192 17.4788L4.89851 16.6995C6.12314 17.3675 7.45911 17.8128 8.90639 17.8128H15.5862C17.0335 17.8128 18.3694 17.3675 19.5941 16.6995L20.3734 17.4788C20.8187 17.9241 21.4867 17.9241 21.932 17.4788C22.3773 17.0335 22.3773 16.3655 21.932 15.9202L21.264 15.2522C22.266 14.1389 23.0453 12.6916 23.268 11.133H23.3793C24.0473 11.133 24.4926 10.6877 24.4926 10.0197C24.4926 9.35171 24.0473 8.90639 23.3793 8.90639ZM15.5862 15.5862H8.90639C6.23448 15.5862 4.00788 13.6936 3.45123 11.133H21.0414C20.4847 13.6936 18.2581 15.5862 15.5862 15.5862Z" fill="#064D5D"/>
</svg>
