<svg width="25" height="25" viewBox="0 0 25 25" fill="none" xmlns="http://www.w3.org/2000/svg">
<path d="M23.3793 14.4729H22.1547C21.7093 11.6896 19.4827 9.46305 16.6995 9.01773V8.34975C16.6995 3.78522 12.9143 0 8.34975 0C3.78522 0 0 3.78522 0 8.34975V23.3793C0 24.0473 0.44532 24.4926 1.1133 24.4926C1.78128 24.4926 2.2266 24.0473 2.2266 23.3793V8.34975C2.2266 5.00985 5.00985 2.2266 8.34975 2.2266C11.6896 2.2266 14.4729 5.00985 14.4729 8.34975V9.01773C11.6896 9.46305 9.46305 11.6896 9.01773 14.4729H7.7931C7.12512 14.4729 6.6798 14.9182 6.6798 15.5862C6.6798 16.2542 7.12512 16.6995 7.7931 16.6995H23.3793C24.0473 16.6995 24.4926 16.2542 24.4926 15.5862C24.4926 14.9182 24.0473 14.4729 23.3793 14.4729ZM15.5862 11.133C17.7015 11.133 19.3714 12.5803 19.9281 14.4729H11.3557C11.801 12.5803 13.4709 11.133 15.5862 11.133Z" fill="#064D5D"/>
<path d="M12.2442 18.9261C12.2442 18.2581 11.7989 17.8128 11.1309 17.8128C10.4629 17.8128 10.0176 18.2581 10.0176 18.9261V20.0394C10.0176 20.7074 10.4629 21.1527 11.1309 21.1527C11.7989 21.1527 12.2442 20.7074 12.2442 20.0394V18.9261Z" fill="#064D5D"/>
<path d="M16.6953 18.9261C16.6953 18.2581 16.25 17.8128 15.582 17.8128C14.9141 17.8128 14.4688 18.2581 14.4688 18.9261V20.0394C14.4688 20.7074 14.9141 21.1527 15.582 21.1527C16.25 21.1527 16.6953 20.7074 16.6953 20.0394V18.9261Z" fill="#064D5D"/>
<path d="M13.3565 21.1527C12.6885 21.1527 12.2432 21.598 12.2432 22.266V23.3793C12.2432 24.0473 12.6885 24.4926 13.3565 24.4926C14.0244 24.4926 14.4698 24.0473 14.4698 23.3793V22.266C14.4698 21.598 14.0244 21.1527 13.3565 21.1527Z" fill="#064D5D"/>
<path d="M20.0371 17.8128C19.3691 17.8128 18.9238 18.2581 18.9238 18.9261V20.0394C18.9238 20.7074 19.3691 21.1527 20.0371 21.1527C20.7051 21.1527 21.1504 20.7074 21.1504 20.0394V18.9261C21.1504 18.2581 20.7051 17.8128 20.0371 17.8128Z" fill="#064D5D"/>
<path d="M17.8086 21.1527C17.1406 21.1527 16.6953 21.598 16.6953 22.266V23.3793C16.6953 24.0473 17.1406 24.4926 17.8086 24.4926C18.4766 24.4926 18.9219 24.0473 18.9219 23.3793V22.266C18.9219 21.598 18.4766 21.1527 17.8086 21.1527Z" fill="#064D5D"/>
</svg>
