<svg width="25" height="25" viewBox="0 0 25 25" fill="none" xmlns="http://www.w3.org/2000/svg">
<path d="M24.1586 11.467L13.0256 0.33399C12.5803 -0.11133 11.9123 -0.11133 11.467 0.33399L0.33399 11.467C-0.11133 11.9123 -0.11133 12.5803 0.33399 13.0256C0.77931 13.4709 1.44732 13.4709 1.89264 13.0256L12.2463 2.67191L22.6 13.0256C23.0453 13.4709 23.7133 13.4709 24.1586 13.0256C24.6039 12.5803 24.6039 11.9123 24.1586 11.467Z" fill="#064D5D"/>
<path d="M21.1517 14.4729H19.7044L17.8118 9.57436C17.5891 9.12904 17.2551 8.90637 16.8098 8.90637H7.90342C7.4581 8.90637 7.01279 9.12904 6.90146 9.57436L5.00884 14.4729H3.33889C2.67091 14.4729 2.22559 14.9182 2.22559 15.5862V21.1527C2.22559 21.8206 2.67091 22.266 3.33889 22.266H5.56549V23.3793C5.56549 24.0472 6.0108 24.4926 6.67878 24.4926H8.90538C9.57336 24.4926 10.0187 24.0472 10.0187 23.3793V22.266H14.4719V23.3793C14.4719 24.0472 14.9172 24.4926 15.5852 24.4926H17.8118C18.4798 24.4926 18.9251 24.0472 18.9251 23.3793V22.266H21.1517C21.8197 22.266 22.265 21.8206 22.265 21.1527V15.5862C22.265 14.9182 21.8197 14.4729 21.1517 14.4729ZM8.57141 11.133H15.9192L17.2551 14.4729H7.23543L8.57141 11.133ZM20.0384 20.0394C14.1379 20.0394 9.79602 20.0394 4.45219 20.0394V16.6995C9.23937 16.6995 13.1359 16.6995 20.0384 16.6995V20.0394Z" fill="#064D5D"/>
</svg>
